<svg width="262" height="96" fill="none" xmlns="http://www.w3.org/2000/svg">
    <path d="M226.302 20.698c5.227-.777 6.371-3.48 6.371-8.112V7.707C232.673 2.58 228.56 0 220.302 0c-8.257 0-12.37 2.58-12.37 7.707v5.75c0 4.04.897 6.153 5.659 6.961-4.762 1.057-5.659 4.01-5.659 8.329v6.309c0 5.19 4.113 7.77 12.37 7.77 8.258 0 12.371-2.58 12.371-7.77v-6.247c0-4.755-1.144-7.459-6.371-8.111zm-6.061-2.704c-1.825 0-2.722-.87-2.722-2.58V7.21c0-1.678.897-2.486 2.722-2.486 1.855 0 2.783.839 2.783 2.486v8.205c0 1.709-.928 2.579-2.783 2.579zm0 19.859c-1.825 0-2.722-.87-2.722-2.58v-9.292c0-1.772.897-2.642 2.722-2.642 1.855 0 2.783.87 2.783 2.642v9.292c0 1.71-.928 2.58-2.783 2.58z" fill="url(#a)"/>
    <path d="M253.751 20.698c5.227-.777 6.371-3.48 6.371-8.112V7.707c0-5.128-4.113-7.707-12.37-7.707-8.258 0-12.371 2.58-12.371 7.707v5.75c0 4.04.897 6.153 5.659 6.961-4.762 1.057-5.659 4.01-5.659 8.329v6.309c0 5.19 4.113 7.77 12.371 7.77 8.257 0 12.37-2.58 12.37-7.77v-6.247c0-4.755-1.144-7.459-6.371-8.111zm-6.061-2.704c-1.825 0-2.722-.87-2.722-2.58V7.21c0-1.678.897-2.486 2.722-2.486 1.855 0 2.783.839 2.783 2.486v8.205c0 1.709-.928 2.579-2.783 2.579zm0 19.859c-1.825 0-2.722-.87-2.722-2.58v-9.292c0-1.772.897-2.642 2.722-2.642 1.855 0 2.783.87 2.783 2.642v9.292c0 1.71-.928 2.58-2.783 2.58z" fill="url(#b)"/>
    <path d="M215.569 48.525c2.825-6.609-.243-14.257-6.853-17.082-6.609-2.825-14.257.243-17.082 6.853-2.824 6.609.243 14.257 6.853 17.082 6.609 2.825 14.257-.243 17.082-6.853z" fill="#fff"/>
    <path d="M209.946 53.996c5.742-3.397 7.752-10.766 4.737-16.795 1.101 7.034-11.101 18.135-22.824 11.149.144.335.335.622.527.957 3.684 6.124 11.531 8.23 17.56 4.689z" fill="#C2C2C2"/>
    <path d="M201.092 42.655c.478-1.77 2.105-4.258 2.871-4.88.861-.096 5.215 1.77 5.407 2.01.143.238.191 2.152-.67 5.215-2.106.813-4.881 1.244-4.881 1.244s-1.627-1.627-2.727-3.589zM202.481 34.809 198.27 35s-.574-1.34-.622-2.057c2.345-1.866 5.886-1.962 5.886-1.962s1.627.861 1.722 1.244c-.574.718-2.775 2.584-2.775 2.584zM191.81 40.646c.622-.478 3.541-1.818 3.78-1.722.909 1.1 1.579 3.732 1.579 3.732s-.43 2.488-1.962 3.971c-.813.048-3.588-.909-3.588-.909s-.335-3.062.191-5.072zM212.1 38.014s-.91-3.876-1.149-4.737l.479-.335c3.349 1.914 4.88 7.034 4.88 7.034l-.861 1.005-3.349-2.967zM209.371 52.512l1.675-3.876 4.354-1.244.287 1.197s-.861 3.35-5.215 5.167a61.157 61.157 0 0 0-1.101-1.244zM196.643 53.421l1.196-3.254 4.258-.19 2.632 3.396s-3.206 2.393-3.541 2.393c-.335.048-4.545-2.345-4.545-2.345z" fill="#000"/>
    <path d="m191.858 41.125-1.004-1.914 1.339 1.435-.335.479zM192.145 45.287l-1.387 1.627.861-1.77.526.143zM198.365 33.517l-2.01-.766 1.962.192.048.574zM203.724 31.459l.047-1.244-.478.91.431.334zM197.219 53.66l-2.106-.382 1.962-.144.144.526zM201.332 55.24l.574 1.196-.861-.718.287-.478zM195.016 39.402s1.435-1.77 1.866-2.297c-1.005 1.531-1.197 2.632-1.197 2.632l-.669-.335zM198.891 34.473s-1.435 1.77-1.866 2.297c1.005-1.531 1.197-2.632 1.197-2.632l.669.335zM208.844 44.521c-.048.575.765 2.01 1.1 2.632-1.005-1.483-1.962-2.153-1.962-2.153s.24-.574.862-.479zM202.481 33.66c-.095.575.575 2.106.862 2.728-.862-1.58-1.771-2.345-1.771-2.345s.335-.574.909-.383z" fill="#000"/>
    <path d="M210.901 49.306c.048-.574-.861-1.961-1.196-2.583 1.101 1.435 2.058 2.057 2.058 2.057s-.288.574-.862.526zM215.878 40.311c-.335.478-.191 2.584-.191 3.302-.192-1.819-.814-3.302-.814-3.302s.526-.383 1.005 0zM212.145 52.13c-.335.478-2.153 2.344-2.153 2.344l1.149-2.344s.574-.383 1.004 0zM214.539 47.68c.431-.383.861-1.962 1.101-2.632-.335 1.77-.144 2.919-.144 2.919s-.622.239-.957-.288zM204.443 31.46c.383.43 2.392 1.004 3.11 1.148-1.818-.24-3.302-.192-3.302-.192s-.287-.574.192-.957zM211.19 34.282c-.239-.526-1.866-1.148-2.44-1.53 1.675.717 2.967.621 2.967.621s0 .718-.527.91zM204.204 46.053c-.526.287-1.244 1.77-1.579 2.392.67-1.674.67-2.823.67-2.823s.67-.143.909.43z" fill="#000"/>
    <path d="M201.381 50.407c.478-.287 1.148-1.818 1.483-2.44-.574 1.722-.526 2.87-.526 2.87s-.718.096-.957-.43zM201.667 43.374c-.431-.383-2.106-.479-2.823-.575 1.818 0 2.871-.43 2.871-.43s.335.574-.048 1.005z" fill="#000"/>
    <path d="M196.547 42.464c.478.335 2.153.383 2.823.43-1.818.096-2.871.575-2.871.575s-.335-.574.048-1.005zM209.849 52.991c-.526-.24-2.057-.144-2.775-.096 1.771-.43 2.632-.909 2.632-.909s.431.479.143 1.005zM204.204 52.752c.478.287 2.153.19 2.871.19-1.819.288-2.776.814-2.776.814s-.43-.526-.095-1.005zM213.151 37.967c-.574-.048-2.009.765-2.631 1.1 1.483-1.005 2.153-1.962 2.153-1.962s.574.287.478.862z" fill="#000"/>
    <path d="M208.367 39.976c.575.048 1.962-.861 2.584-1.196-1.435 1.1-2.057 2.057-2.057 2.057s-.622-.239-.527-.86zM195.399 46.1c0 .575.909 1.963 1.244 2.585-1.1-1.436-2.344-2.345-2.344-2.345s.526-.335 1.1-.24z" fill="#000"/>
    <path d="M197.743 50.742c0-.574-1.005-1.914-1.388-2.488 1.197 1.388 2.202 1.914 2.202 1.914s-.192.622-.814.574zM203.63 38.684c.191-.574-.383-2.153-.526-2.823.717 1.675 1.483 2.488 1.483 2.488s-.383.574-.957.335z" fill="#000"/>
    <path d="M207.984 45.575c1.053.287 2.249 2.68 2.249 2.68l-.574.239c-.048 0-.383-1.579-1.675-2.919zM202.529 46.005c.574.91-.813 3.637-.813 3.637l-.622-.192c0-.048 1.435-1.53 1.435-3.445z" fill="#C2C2C2"/>
    <path d="M198.271 49.403c.479.814 3.398.24 3.398.24l.095-.623s-1.914.957-3.493.383zM201.67 38.637c.574.909-.814 3.636-.814 3.636l-.622-.191c0-.048 1.436-1.58 1.436-3.445z" fill="#C2C2C2"/>
    <path d="M197.41 42.034c.479.813 3.397.24 3.397.24l.096-.623s-1.914.91-3.493.383zM210.377 34.33c.861.526 1.244 3.493 1.244 3.493l-.574.096s.287-1.962-.67-3.589z" fill="#C2C2C2"/>
    <path d="M208.941 39.21c.766.48 2.632-1.339 2.632-1.339l-.239-.622s-.957 1.723-2.393 1.962zM194.969 47.824c1.005.143 2.44 2.775 2.44 2.775l-.478.287c-.048 0-.479-1.914-1.962-3.062z" fill="#C2C2C2"/>
    <path d="M195.447 52.896c.909.143 1.962-2.25 1.962-2.25l-.431-.478c-.047.048-.287 1.962-1.531 2.728zM212.051 38.684c1.052.096 3.014 2.68 3.014 2.68l-.526.382s-.957-1.961-2.488-3.062zM195.064 38.54s.91-1.482 2.441-4.64c.287 1.53-2.441 4.64-2.441 4.64zM205.496 31.268s1.627.574 5.072 1.387c-1.435.622-5.072-1.387-5.072-1.387z" fill="#C2C2C2"/>
    <path d="M0 1.923c0-.471.419-.89.943-.89h70.132c.524 0 .89.419.89.89v62.223c0 .524-.419.89-.89.89H.943c-.524 0-.943-.418-.943-.89V1.923z" fill="#D4B372"/>
    <path d="M3.562 5.485c0-.524.42-.89.943-.89h63.009c.524 0 .89.418.89.89v55.1c0 .524-.419.89-.89.89H4.453c-.524 0-.943-.419-.943-.89v-55.1h.052z" fill="url(#c)"/>
    <path d="M53.372 46.39V18.213s1.78-1.048 3.614-3.457c0 0-2.305.89-3.247 0-.995-.89-2.933-3.719-2.933-3.719s-6.705 4.19-7.438 4.61v-5.133h-1.467v5.709s-1.361.576-2.304-.21c-.995-.838-1.886-.733-3.457-5.185 0 0-9.218 4.504-13.356 7.228-4.138 2.776-3.98 3.09-4.295 7.542 0 2.828.21 4.714-.89 4.766-1.467-.052-4.086-.419-4.871 3.667-.42 2.042.524 3.561 1.519 3.718 0 0 .314-2.356 3.09-2.356.89 0 1.205.209 1.257 1.937.052 1.153 0 3.667 0 4.976 0 .89-.157 1.833-.524 2.671-.314.629-.68 1.31-1.257 1.52 0 0 3.195.052 5.657-2.41.838-.89.89-1.886.995-4.714.105-2.828 0-19.117 0-19.117s.419-2.305 3.562-3.457v27.655s.471 5.761-3.3 6.075c-3.771-.157-3.614-.942-5.762-1.31-2.042-.366-5.237.786-6.547 5.081-.052.158.158.367.315.21.576-.42 1.623-.943 2.776-.471 1.728.628 3.614 1.833 6.232 1.78 2.62-.052 7.071-1.833 7.595-10.632.105-8.538.105-9.061.105-9.061h4.557v12.78s-2.724 1.833-2.829 3.823c0 .157.157.367.367.314.628-.157 1.257-.314 1.938-.366.733-.105 4.504 2.042 4.976 2.88.89.524 2.304-1.309 2.985-1.833.628-.523 5.342-3.928 6.914-4.714.89 0 1.047.42 1.362 2.253.209 1.833 1.99 4.137 4.975 4.609l4.243-6.285c-.105-.315-3.771.052-4.557-3.195zM33.416 30.469h-4.975V15.803c.89-.053 1.257-.21 1.885-.21.734 1.938 3.09 2.828 3.09 2.828v12.047zm7.91 19.537-2.62-1.834V19.417c.996-1.572 3.195-1.938 3.195-1.938v32.526h-.576zm6.808-2.934-4.609 2.881h-.157V35.915h4.766v11.157zm0-16.603h-4.766l.052-13.251c.89-1.152 2.305-1.257 2.305-1.257.314 1.519 2.462 2.514 2.462 2.514v11.942h-.053v.052z" fill="#fff"/>
    <path opacity=".2" fill-rule="evenodd" clip-rule="evenodd" d="M.943 1.033c-.524 0-.943.419-.943.89v45.044l71.966-19.484V1.923c0-.524-.42-.89-.89-.89H.942z" fill="#fff"/>
    <path d="M83.406 61.898c7.357-2.362 14.58-4.522 21.6-6.412.944-2.025 1.619-4.455 1.957-7.155l2.43-19.642H96.298l-1.08 8.842h4.253l-1.418 11.407c-.54 4.455-2.632 6.008-5.602 6.008s-4.657-1.62-4.117-6.008l4.184-33.41c.54-4.456 2.633-6.076 5.603-6.076 2.97 0 4.657 1.688 4.117 6.075l-.81 6.615h8.842l.743-6.007C112.228 6.213 108.178.543 98.998.543s-14.647 5.67-15.862 15.592L79.154 48.33c-.877 6.48.607 11.137 4.252 13.567zM84.484 62.505c1.823.877 3.983 1.417 6.615 1.417 5.265 0 9.247-1.822 12.015-5.264-7.493 1.35-13.77 2.7-18.63 3.847zM121.474 51.436a10.596 10.596 0 0 1 .067-2.498l4.185-33.478c.54-4.455 2.632-6.075 5.602-6.075s4.658 1.687 4.118 6.075l-4.185 33.478c0 .136-.068.27-.068.405 3.24-.675 6.48-1.282 9.585-1.89l3.915-31.318C145.908 6.213 141.588.543 132.408.543s-14.917 5.67-16.132 15.592l-3.982 32.196c-.27 1.957-.27 3.712-.068 5.332a261.24 261.24 0 0 1 9.248-2.227zM127.817 54.676a5.943 5.943 0 0 1-2.227.405h-.54c-4.252.607-8.37 1.215-12.15 1.89 1.62 4.522 5.535 7.02 11.61 7.02 7.56 0 12.757-3.848 15.052-10.733-4.05.405-7.965.878-11.745 1.418zM155.761 44.956l8.707-32.736h.203l.607 31.386c3.24-.405 6.277-.81 9.18-1.08l-1.215-41.308h-13.702l-12.555 45.088c2.97-.473 5.94-.945 8.775-1.35zM145.232 52.583l-2.97 10.598h8.572l3.037-11.408c-2.902.27-5.804.54-8.639.81zM165.346 50.963l.202 12.285h9.45l-.405-12.757c-3.105.067-6.21.27-9.247.472zM191.472 41.041 196.4 1.218h-9.383l-5.062 40.566c3.577-.338 6.75-.54 9.517-.743zM190.391 49.951c-3.173.068-6.278.135-9.382.27l-1.62 13.027h24.771l1.08-8.842h-15.389l.54-4.455z" fill="#151D2D"/>
    <path d="M71.759.517H0v64.015h71.759V.517z" fill="#C9AA71"/>
    <path d="M67.628 4.13h-63.5v56.787h63.5V4.13z" fill="url(#d)"/>
    <path d="M29.039 31.456v20.078c0 .44-.1.733-.496.733-.397 0-.545-.294-.545-.733v-2.638h-.992c-.942 0-4.66 3.077-5.553 3.712-1.637-.928-3.62-1.856-5.107-2.344-.843.781-1.438 1.319-1.835 1.71-.397.39-.545.586-.744.586-.297 0-.595-.342-.595-.587 0-.244.595-.928 3.421-3.81 1.934-1.954 2.728-4.396 2.728-8.011 0-6.01-2.628-11.139-5.603-11.139-.992 0-1.488.391-1.686 1.417-.05.489-.298.635-.496.635-.446 0-.694-.733-.694-1.954 0-2.784 1.934-4.983 4.363-4.983 2.083 0 2.876 1.661 4.116 1.515v-4.104c0-1.026-.397-1.954-1.14-2.589-.645-.537-4.116-2.882-5.405-2.882-.447 0-.645.195-.942.195-.199 0-.199-.049-.199-.195 0-.195.1-.293.446-.635l4.364-4.299c.198-.195.347-.293.545-.293 1.488 0 7.487 4.787 8.231 4.787 1.14 0 7.289-4.64 8.875-4.64.447 0 .893.39 4.265 3.077.545.44 1.686 1.417 2.677 2.052.893.537.942.635.942 1.71.546-.098 1.14-.538 4.661-3.371.992-.83 3.967-3.175 4.165-3.175.298 0 2.727 1.025 6.347 2.491 1.041.44 1.24.537 1.24 1.221v28.578c0 .928.099 1.27.495 1.612 1.686 1.417 2.678 2.003 3.223 2.003.199 0 .397-.049.546-.195.297-.391.347-.44.495-.44.199 0 .347.195.347.44 0 .342-2.479 3.42-5.057 5.422-1.537-.537-4.215-2.345-5.702-3.908-.496-.537-.595-.684-.595-1.612V26.375c0-2.344.744-4.005 3.57-7.67 1.438-1.855 1.537-2.442 1.289-2.442-.198 0-3.62 2.443-4.264 2.834-3.025-1.71-3.917-2.247-5.504-2.247-.892 0-1.487.44-1.487 1.025v34c0 .44-.199.782-.546.782-.297 0-.446-.293-.446-.732v-2.54c-2.38.39-4.363 3.175-4.86 3.175-.594 0-4.214-4.3-4.214-4.641V31.456H29.04zm-1.041-14.118c0-1.123-.1-1.514-.347-1.514-.496 0-2.281 1.123-2.281 1.514v15.34c0 7.571-.893 8.353-2.876 10.453-.893.929-1.14 1.124-1.785 1.954 1.14 1.612 5.057 2.345 7.289 2.248V17.338zm1.04 8.891h6.496v-6.106c0-1.124-4.165-4.3-5.553-4.3-.595 0-.942.392-.942 1.124v9.282zm15.57-7.865c0-.098-.05-.195-.198-.195-.198 0-.446.097-.595.195l-1.29.782c-.743.44-.941.683-.941 1.026v5.52c0 .39.495.635.892.635h2.182l-.05-7.963zm0 12.994h-2.082c-.595 0-.893.44-.893 1.27v11.334c0 2.247.942 3.273 3.025 3.42V31.357h-.05z" fill="#fff"/>
    <path opacity=".2" fill-rule="evenodd" clip-rule="evenodd" d="M.943.517C.419.517 0 .936 0 1.407v45.044l71.966-19.484V1.407c0-.524-.42-.89-.89-.89H.942z" fill="#fff"/>
    <path d="m67.71 78.667-6.105 17.094h-2.154l-6.105-17.094h2.25l3.855 10.965c.255.702.47 1.364.646 1.987.175.606.32 1.189.43 1.748.112-.559.256-1.15.432-1.772.175-.623.39-1.293.646-2.011l3.83-10.917h2.275zM82.017 95.76H75.84v-1.244l2.011-.455V80.39l-2.01-.479v-1.245h6.176v1.245l-2.011.479v13.67l2.011.455v1.245zM97.024 78.667c2.235 0 3.863.439 4.884 1.317 1.022.878 1.532 2.115 1.532 3.71 0 .942-.215 1.828-.646 2.658-.415.814-1.125 1.476-2.131 1.987-.99.51-2.338.766-4.046.766h-1.963v6.656H92.5V78.667h4.524zm-.191 1.844h-2.179v6.75h1.724c1.628 0 2.84-.263 3.639-.79.798-.526 1.197-1.42 1.197-2.68 0-1.102-.351-1.924-1.053-2.466-.703-.543-1.812-.814-3.328-.814zM134.904 80.319c-1.836 0-3.28.614-4.333 1.843-1.054 1.23-1.581 2.913-1.581 5.052 0 2.123.487 3.806 1.461 5.051.989 1.23 2.466 1.844 4.429 1.844.75 0 1.46-.064 2.13-.192a19.594 19.594 0 0 0 1.964-.479v1.868c-.639.24-1.301.415-1.987.526-.671.112-1.477.168-2.418.168-1.74 0-3.192-.36-4.358-1.077-1.165-.719-2.042-1.74-2.633-3.065-.575-1.324-.862-2.88-.862-4.668 0-1.724.311-3.24.934-4.549.638-1.325 1.572-2.354 2.801-3.088 1.229-.75 2.721-1.125 4.477-1.125 1.803 0 3.375.335 4.716 1.005l-.862 1.82a13.34 13.34 0 0 0-1.772-.647 7.303 7.303 0 0 0-2.106-.287zM149.887 95.76V78.668h2.154v15.178h7.47v1.916h-9.624zM182.389 89.728c0 1.18-.239 2.25-.718 3.208-.479.941-1.213 1.691-2.203 2.25-.973.543-2.218.814-3.734.814-2.123 0-3.743-.575-4.86-1.724-1.101-1.165-1.652-2.697-1.652-4.596V78.667h2.155v11.085c0 1.388.367 2.465 1.101 3.232.75.766 1.875 1.149 3.375 1.149 1.549 0 2.666-.407 3.352-1.221.702-.83 1.053-1.892 1.053-3.184v-11.06h2.131v11.06zM198.967 78.667c2.138 0 3.75.32 4.836.958 1.101.622 1.651 1.716 1.651 3.28 0 1.005-.279 1.843-.837 2.513-.559.655-1.365 1.078-2.418 1.27v.119c.718.112 1.364.32 1.939.622.59.304 1.053.734 1.388 1.293.335.559.503 1.285.503 2.179 0 1.548-.535 2.745-1.604 3.59-1.053.847-2.498 1.27-4.333 1.27h-6.009V78.667h4.884zm.431 7.278c1.468 0 2.473-.231 3.016-.694.543-.48.814-1.181.814-2.107 0-.942-.335-1.612-1.006-2.011-.654-.415-1.707-.622-3.16-.622h-2.825v5.434h3.161zm-3.161 1.796v6.2h3.448c1.516 0 2.569-.295 3.16-.886.59-.59.886-1.364.886-2.322 0-.894-.311-1.612-.934-2.154-.606-.56-1.7-.838-3.28-.838h-3.28z" fill="#D4AF37"/>
    <defs>
        <radialGradient id="c" cx="0" cy="0" r="1" gradientUnits="userSpaceOnUse" gradientTransform="matrix(115.122 0 0 101.015 37.533 7.58)">
            <stop stop-color="#BF2026"/>
            <stop offset=".505" stop-color="#BE2126"/>
            <stop offset="1" stop-color="#C62127"/>
        </radialGradient>
        <radialGradient id="d" cx="0" cy="0" r="1" gradientUnits="userSpaceOnUse" gradientTransform="matrix(112.691 0 0 56.754 37.233 7.154)">
            <stop stop-color="#C12127"/>
            <stop offset=".505" stop-color="#BE2129"/>
            <stop offset="1" stop-color="#C82127"/>
        </radialGradient>
        <linearGradient id="a" x1="220.302" y1="0" x2="220.302" y2="42.825" gradientUnits="userSpaceOnUse">
            <stop stop-color="#CC4D52"/>
            <stop offset=".708" stop-color="#BF2127"/>
        </linearGradient>
        <linearGradient id="b" x1="247.752" y1="0" x2="247.752" y2="42.825" gradientUnits="userSpaceOnUse">
            <stop stop-color="#CC4D52"/>
            <stop offset=".771" stop-color="#BF2127"/>
        </linearGradient>
    </defs>
</svg>
