<svg width="218" height="80" fill="none" xmlns="http://www.w3.org/2000/svg">
    <path d="M188.586 17.248c4.356-.647 5.309-2.9 5.309-6.76V6.424c0-4.273-3.428-6.423-10.309-6.423-6.881 0-10.309 2.15-10.309 6.423v4.79c0 3.368.748 5.129 4.717 5.802-3.969.88-4.717 3.34-4.717 6.94v5.258c0 4.325 3.428 6.475 10.309 6.475 6.881 0 10.309-2.15 10.309-6.475v-5.206c0-3.962-.953-6.215-5.309-6.759zm-5.051-2.253c-1.521 0-2.268-.725-2.268-2.15V6.008c0-1.398.747-2.071 2.268-2.071 1.546 0 2.319.699 2.319 2.071v6.837c0 1.425-.773 2.15-2.319 2.15zm0 16.549c-1.521 0-2.268-.725-2.268-2.15v-7.743c0-1.476.747-2.201 2.268-2.201 1.546 0 2.319.725 2.319 2.2v7.744c0 1.425-.773 2.15-2.319 2.15z" fill="url(#a)"/>
    <path d="M211.459 17.248c4.356-.647 5.309-2.9 5.309-6.76V6.424c0-4.273-3.427-6.423-10.309-6.423-6.881 0-10.309 2.15-10.309 6.423v4.79c0 3.368.748 5.129 4.717 5.802-3.969.88-4.717 3.34-4.717 6.94v5.258c0 4.325 3.428 6.475 10.309 6.475 6.882 0 10.309-2.15 10.309-6.475v-5.206c0-3.962-.953-6.215-5.309-6.759zm-5.051-2.253c-1.521 0-2.268-.725-2.268-2.15V6.008c0-1.398.747-2.071 2.268-2.071 1.546 0 2.319.699 2.319 2.071v6.837c0 1.425-.773 2.15-2.319 2.15zm0 16.549c-1.521 0-2.268-.725-2.268-2.15v-7.743c0-1.476.747-2.201 2.268-2.201 1.546 0 2.319.725 2.319 2.2v7.744c0 1.425-.773 2.15-2.319 2.15z" fill="url(#b)"/>
    <path d="M179.639 40.438c2.354-5.508-.202-11.881-5.71-14.235-5.508-2.354-11.881.202-14.235 5.71-2.354 5.508.203 11.881 5.71 14.235 5.508 2.354 11.881-.202 14.235-5.71z" fill="#fff"/>
    <path d="M174.953 44.997c4.785-2.831 6.46-8.972 3.948-13.996.917 5.861-9.251 15.112-19.02 9.29.119.28.279.519.438.798 3.071 5.104 9.61 6.858 14.634 3.908z" fill="#C2C2C2"/>
    <path d="M167.576 35.546c.399-1.475 1.755-3.549 2.393-4.067.717-.08 4.346 1.475 4.505 1.675.12.199.16 1.794-.558 4.346-1.754.678-4.067 1.036-4.067 1.036s-1.356-1.355-2.273-2.99zM168.734 29.007l-3.509.16s-.478-1.117-.518-1.715c1.954-1.555 4.905-1.635 4.905-1.635s1.355.718 1.435 1.037c-.479.598-2.313 2.153-2.313 2.153zM159.841 33.872c.518-.399 2.95-1.515 3.15-1.436.757.917 1.316 3.11 1.316 3.11s-.359 2.074-1.635 3.31c-.678.04-2.991-.758-2.991-.758s-.279-2.551.16-4.226zM176.75 31.678s-.758-3.23-.957-3.947l.399-.28c2.791 1.596 4.067 5.862 4.067 5.862l-.718.838-2.791-2.473zM174.477 43.76l1.395-3.23 3.629-1.036.239.996s-.718 2.792-4.346 4.307c-.16-.2-.917-1.037-.917-1.037zM163.869 44.518l.997-2.712 3.549-.16 2.193 2.832s-2.672 1.993-2.951 1.993c-.279.04-3.788-1.953-3.788-1.953z" fill="#000"/>
    <path d="m159.882 34.27-.837-1.595 1.116 1.197-.279.398zM160.121 37.739l-1.156 1.356.718-1.476.438.12zM165.306 27.93l-1.675-.637 1.635.16.04.478zM169.771 26.216l.04-1.037-.399.758.359.279zM164.348 44.717l-1.754-.32 1.635-.119.119.439zM167.776 46.033l.479.997-.718-.598.239-.399zM162.514 32.835s1.196-1.475 1.555-1.914c-.838 1.276-.997 2.193-.997 2.193l-.558-.279zM165.745 28.728s-1.197 1.475-1.556 1.914c.838-1.276.997-2.194.997-2.194l.559.28zM174.036 37.101c-.04.479.638 1.675.917 2.193-.837-1.236-1.635-1.794-1.635-1.794s.2-.479.718-.399zM168.734 28.05c-.08.479.479 1.755.718 2.273-.718-1.316-1.475-1.954-1.475-1.954s.279-.478.757-.319z" fill="#000"/>
    <path d="M175.751 41.089c.04-.479-.718-1.635-.997-2.154.917 1.197 1.714 1.715 1.714 1.715s-.239.479-.717.439zM179.898 33.593c-.279.398-.16 2.153-.16 2.75a10.884 10.884 0 0 0-.677-2.75s.438-.32.837 0zM176.788 43.441c-.279.399-1.794 1.954-1.794 1.954l.957-1.954s.479-.319.837 0zM178.781 39.733c.359-.32.718-1.635.917-2.193-.279 1.475-.119 2.432-.119 2.432s-.519.2-.798-.24zM170.369 26.216c.319.359 1.994.837 2.592.957-1.515-.2-2.751-.16-2.751-.16s-.239-.478.159-.797zM175.991 28.569c-.2-.439-1.555-.957-2.034-1.276 1.396.598 2.472.518 2.472.518s0 .598-.438.758zM170.169 38.377c-.438.24-1.036 1.476-1.315 1.994.558-1.396.558-2.352.558-2.352s.558-.12.757.358z" fill="#000"/>
    <path d="M167.818 42.006c.399-.24.957-1.515 1.236-2.034-.478 1.436-.438 2.393-.438 2.393s-.598.08-.798-.36zM168.056 36.145c-.359-.32-1.755-.4-2.353-.479 1.515 0 2.393-.359 2.393-.359s.279.479-.04.838z" fill="#000"/>
    <path d="M163.79 35.387c.398.279 1.794.319 2.352.359-1.515.08-2.392.478-2.392.478s-.279-.478.04-.837zM174.875 44.16c-.438-.2-1.714-.12-2.313-.08 1.476-.36 2.194-.758 2.194-.758s.358.398.119.837zM170.169 43.96c.399.239 1.794.159 2.392.159-1.515.24-2.312.678-2.312.678s-.359-.439-.08-.837zM177.627 31.639c-.479-.04-1.675.638-2.193.917 1.236-.837 1.794-1.635 1.794-1.635s.478.24.399.718z" fill="#000"/>
    <path d="M173.639 33.313c.479.04 1.635-.717 2.153-.996-1.196.917-1.714 1.714-1.714 1.714s-.519-.2-.439-.718zM162.833 38.417c0 .479.758 1.635 1.037 2.154-.917-1.197-1.954-1.954-1.954-1.954s.439-.28.917-.2z" fill="#000"/>
    <path d="M164.787 42.285c0-.478-.837-1.595-1.156-2.073.997 1.156 1.834 1.594 1.834 1.594s-.159.519-.678.479zM169.691 32.237c.159-.479-.319-1.795-.439-2.353.598 1.396 1.236 2.074 1.236 2.074s-.319.478-.797.279z" fill="#000"/>
    <path d="M173.318 37.98c.878.239 1.874 2.232 1.874 2.232l-.478.2c-.04 0-.319-1.316-1.396-2.433zM168.772 38.338c.479.757-.677 3.03-.677 3.03l-.519-.16c0-.04 1.196-1.275 1.196-2.87z" fill="#C2C2C2"/>
    <path d="M165.225 41.17c.398.677 2.831.199 2.831.199l.079-.519s-1.595.798-2.91.32zM168.056 32.197c.478.758-.678 3.03-.678 3.03l-.519-.159c0-.04 1.197-1.316 1.197-2.87z" fill="#C2C2C2"/>
    <path d="M164.506 35.028c.399.678 2.831.2 2.831.2l.08-.519s-1.595.758-2.911.32zM175.312 28.608c.718.44 1.037 2.911 1.037 2.911l-.478.08s.239-1.635-.559-2.99z" fill="#C2C2C2"/>
    <path d="M174.117 32.676c.638.399 2.193-1.117 2.193-1.117l-.199-.518s-.798 1.436-1.994 1.635zM162.473 39.853c.837.12 2.033 2.313 2.033 2.313l-.399.239c-.039 0-.398-1.595-1.634-2.552z" fill="#C2C2C2"/>
    <path d="M162.873 44.08c.758.12 1.635-1.874 1.635-1.874l-.359-.4c-.04.04-.239 1.636-1.276 2.274zM176.709 32.237c.877.08 2.512 2.233 2.512 2.233l-.439.319s-.797-1.635-2.073-2.552zM162.553 32.117s.757-1.236 2.033-3.867c.24 1.276-2.033 3.867-2.033 3.867zM171.246 26.056s1.356.479 4.227 1.157c-1.196.518-4.227-1.157-4.227-1.157z" fill="#C2C2C2"/>
    <path d="M0 1.603C0 1.21.35.86.786.86h58.443c.437 0 .742.349.742.742v51.852c0 .437-.349.742-.742.742H.786c-.437 0-.786-.349-.786-.742V1.604z" fill="#D4B372"/>
    <path d="M2.967 4.57c0-.436.35-.741.786-.741h52.508c.436 0 .742.349.742.742v45.916c0 .437-.35.742-.742.742H3.709c-.436 0-.785-.349-.785-.742V4.572h.043z" fill="url(#c)"/>
    <path d="M44.476 38.659V15.177s1.484-.873 3.012-2.881c0 0-1.92.742-2.706 0-.83-.742-2.445-3.099-2.445-3.099s-5.587 3.492-6.198 3.841V8.761h-1.222v4.757s-1.135.48-1.92-.174c-.83-.699-1.572-.611-2.88-4.321 0 0-7.683 3.753-11.13 6.023-3.449 2.313-3.318 2.575-3.58 6.285 0 2.357.175 3.928-.742 3.972-1.222-.044-3.404-.35-4.06 3.055-.348 1.702.437 2.968 1.267 3.1 0 0 .261-1.965 2.575-1.965.742 0 1.004.175 1.047 1.615.044.96 0 3.055 0 4.146 0 .742-.13 1.528-.436 2.227-.262.523-.568 1.09-1.048 1.265 0 0 2.663.044 4.714-2.008.699-.742.742-1.57.83-3.928.087-2.357 0-15.931 0-15.931s.349-1.92 2.968-2.88v23.045s.392 4.801-2.75 5.063c-3.143-.13-3.012-.786-4.801-1.091-1.703-.306-4.365.655-5.456 4.234-.044.13.13.305.262.174.48-.349 1.353-.785 2.313-.393 1.44.524 3.011 1.528 5.194 1.484 2.182-.043 5.892-1.527 6.329-8.86.087-7.114.087-7.55.087-7.55h3.797v10.649s-2.27 1.528-2.357 3.186c0 .131.131.306.306.262.524-.13 1.047-.262 1.615-.305.61-.088 3.753 1.702 4.146 2.4.742.437 1.92-1.091 2.488-1.527.524-.437 4.452-3.274 5.762-3.929.742 0 .873.35 1.134 1.877.175 1.528 1.659 3.448 4.147 3.841l3.535-5.238c-.087-.261-3.142.044-3.797-2.662zM27.846 25.39H23.7V13.17c.742-.044 1.047-.175 1.571-.175.611 1.615 2.575 2.357 2.575 2.357v10.04zm6.591 16.28-2.182-1.527V16.181c.83-1.31 2.662-1.615 2.662-1.615V41.67h-.48zm5.674-2.444-3.84 2.401h-.132V29.929h3.972v9.297zm0-13.836H36.14l.044-11.043c.742-.96 1.92-1.047 1.92-1.047.262 1.266 2.052 2.095 2.052 2.095v9.952h-.044v.043z" fill="#fff"/>
    <path opacity=".2" fill-rule="evenodd" clip-rule="evenodd" d="M.786.86C.349.86 0 1.21 0 1.604v37.536l59.971-16.237v-21.3a.736.736 0 0 0-.742-.741H.786z" fill="#fff"/>
    <path d="M69.504 51.582c6.131-1.969 12.15-3.769 18-5.344.787-1.687 1.35-3.712 1.63-5.962l2.026-16.368H80.248l-.9 7.368h3.543l-1.18 9.506c-.45 3.713-2.195 5.006-4.67 5.006-2.474 0-3.88-1.35-3.43-5.006l3.487-27.843c.45-3.712 2.193-5.062 4.668-5.062s3.881 1.406 3.431 5.062l-.675 5.513h7.369l.619-5.006C93.522 5.177 90.147.452 82.498.452c-7.65 0-12.206 4.725-13.219 12.994l-3.318 26.83c-.732 5.4.506 9.28 3.543 11.306zM70.402 52.087c1.519.732 3.319 1.182 5.513 1.182 4.387 0 7.706-1.519 10.012-4.388a297.763 297.763 0 0 0-15.525 3.206zM101.229 42.863a8.787 8.787 0 0 1 .056-2.08l3.487-27.9c.45-3.712 2.194-5.062 4.669-5.062 2.475 0 3.881 1.406 3.431 5.062l-3.487 27.9c0 .112-.057.224-.057.337 2.7-.563 5.4-1.07 7.988-1.575l3.262-26.1C121.59 5.178 117.99.453 110.341.453c-7.65 0-12.431 4.725-13.444 12.994l-3.318 26.83c-.225 1.631-.225 3.094-.056 4.443a217.487 217.487 0 0 1 7.706-1.856zM106.515 45.563a4.955 4.955 0 0 1-1.856.338h-.45c-3.544.506-6.975 1.012-10.125 1.575 1.35 3.768 4.612 5.85 9.675 5.85 6.299 0 10.63-3.207 12.543-8.944-3.375.337-6.637.731-9.787 1.181zM129.801 37.463l7.255-27.28h.169l.506 26.155c2.7-.337 5.232-.675 7.65-.9l-1.012-34.423H132.95l-10.462 37.573c2.475-.393 4.95-.787 7.313-1.125zM121.026 43.82l-2.475 8.83h7.143l2.531-9.505c-2.418.224-4.837.45-7.199.674zM137.789 42.47l.169 10.236h7.875l-.338-10.63c-2.587.056-5.175.225-7.706.393zM159.56 34.201l4.106-33.186h-7.819l-4.218 33.805c2.981-.282 5.625-.45 7.931-.619zM158.659 41.626c-2.644.056-5.231.113-7.819.225l-1.35 10.856h20.643l.9-7.369h-12.824l.45-3.712z" fill="#fff"/>
    <path d="M59.8.43H0v53.347h59.8V.43z" fill="#C9AA71"/>
    <path d="M56.357 3.441H3.441v47.323h52.916V3.441z" fill="url(#d)"/>
    <path d="M24.2 26.213v16.732c0 .366-.083.61-.414.61-.33 0-.454-.244-.454-.61v-2.199h-.827c-.785 0-3.884 2.565-4.627 3.094-1.364-.773-3.017-1.547-4.256-1.954-.703.652-1.199 1.1-1.53 1.425-.33.326-.454.489-.619.489-.248 0-.496-.285-.496-.489 0-.203.496-.773 2.851-3.175 1.612-1.629 2.273-3.664 2.273-6.676 0-5.008-2.19-9.282-4.67-9.282-.826 0-1.239.326-1.404 1.18-.041.408-.248.53-.413.53-.372 0-.579-.611-.579-1.629 0-2.32 1.612-4.152 3.636-4.152 1.736 0 2.397 1.384 3.43 1.262v-3.42c0-.855-.33-1.628-.95-2.157-.538-.448-3.43-2.402-4.504-2.402-.372 0-.537.163-.785.163-.166 0-.166-.04-.166-.163 0-.163.083-.244.372-.53l3.636-3.582c.165-.162.29-.244.455-.244 1.24 0 6.239 3.99 6.859 3.99.95 0 6.074-3.868 7.396-3.868.372 0 .744.326 3.553 2.565.455.366 1.405 1.18 2.232 1.71.744.448.785.529.785 1.425.454-.082.95-.448 3.884-2.81.826-.691 3.305-2.646 3.47-2.646.249 0 2.273.855 5.29 2.077.867.366 1.033.447 1.033 1.017V36.31c0 .774.082 1.059.413 1.344 1.405 1.18 2.231 1.669 2.686 1.669.165 0 .33-.041.454-.163.248-.326.29-.367.413-.367.166 0 .29.163.29.367 0 .285-2.066 2.85-4.215 4.519-1.281-.448-3.512-1.954-4.752-3.257-.413-.448-.496-.57-.496-1.344V21.98c0-1.954.62-3.338 2.975-6.392 1.199-1.547 1.281-2.035 1.075-2.035-.166 0-3.017 2.035-3.554 2.361-2.52-1.425-3.264-1.873-4.586-1.873-.744 0-1.24.367-1.24.855V43.23c0 .366-.165.651-.454.651-.248 0-.372-.244-.372-.61v-2.117c-1.984.325-3.636 2.646-4.05 2.646-.495 0-3.512-3.583-3.512-3.868V26.213H24.2zm-.868-11.765c0-.936-.083-1.262-.29-1.262-.413 0-1.9.937-1.9 1.262v12.783c0 6.31-.744 6.961-2.397 8.712-.744.773-.95.936-1.487 1.628.95 1.344 4.214 1.954 6.074 1.873V14.448zm.867 7.41h5.413v-5.09c0-.936-3.47-3.582-4.627-3.582-.496 0-.786.326-.786.937v7.735zm12.975-6.555c0-.081-.041-.163-.166-.163-.165 0-.371.082-.495.163l-1.075.652c-.62.366-.785.57-.785.855v4.6c0 .325.413.529.744.529h1.818l-.041-6.636zm0 10.829h-1.736c-.495 0-.743.366-.743 1.058v9.445c0 1.873.785 2.727 2.52 2.85V26.131h-.041z" fill="#fff"/>
    <path opacity=".2" fill-rule="evenodd" clip-rule="evenodd" d="M.786.43C.349.43 0 .78 0 1.174v37.536l59.971-16.237v-21.3a.736.736 0 0 0-.742-.741H.786z" fill="#fff"/>
    <path d="M56.425 65.556 51.338 79.8h-1.796l-5.087-14.245h1.875l3.212 9.137c.213.585.393 1.137.54 1.656.145.505.265.991.358 1.456.093-.465.213-.957.36-1.476.146-.519.325-1.077.538-1.676l3.192-9.097h1.895zM68.348 79.8H63.2v-1.037l1.675-.379V66.992l-1.675-.399v-1.037h5.147v1.037l-1.676.4v11.391l1.676.38V79.8zM80.854 65.556c1.862 0 3.219.366 4.07 1.097.851.732 1.277 1.762 1.277 3.093 0 .784-.18 1.522-.539 2.214-.346.678-.938 1.23-1.776 1.656-.824.425-1.948.638-3.371.638h-1.636V79.8h-1.796V65.556h3.771zm-.16 1.536H78.88v5.626h1.436c1.357 0 2.368-.22 3.033-.658.665-.44.997-1.184.997-2.235 0-.917-.292-1.602-.877-2.055-.586-.452-1.51-.678-2.774-.678zM112.42 66.933c-1.529 0-2.733.512-3.611 1.536-.878 1.024-1.317 2.427-1.317 4.21 0 1.768.406 3.171 1.217 4.209.825 1.024 2.055 1.536 3.691 1.536a9.49 9.49 0 0 0 1.776-.16 16.35 16.35 0 0 0 1.636-.399v1.556c-.532.2-1.084.346-1.656.44-.559.093-1.23.139-2.015.139-1.45 0-2.66-.3-3.631-.898-.971-.598-1.703-1.45-2.195-2.553-.479-1.104-.718-2.401-.718-3.89 0-1.437.259-2.7.778-3.791a5.92 5.92 0 0 1 2.334-2.574c1.024-.625 2.268-.938 3.731-.938 1.503 0 2.813.28 3.93.838l-.718 1.517c-.439-.2-.931-.38-1.476-.54a6.09 6.09 0 0 0-1.756-.239zM124.906 79.8V65.556h1.795v12.648h6.225v1.597h-8.02zM151.991 74.773c0 .984-.199 1.875-.598 2.673-.399.785-1.011 1.41-1.836 1.876-.811.452-1.848.678-3.112.678-1.769 0-3.119-.479-4.05-1.436-.918-.971-1.376-2.248-1.376-3.83v-9.178h1.795v9.237c0 1.157.306 2.055.918 2.693.625.639 1.563.958 2.813.958 1.29 0 2.221-.34 2.793-1.018.585-.691.878-1.576.878-2.653v-9.217h1.775v9.217zM165.806 65.556c1.782 0 3.125.266 4.03.798.917.519 1.376 1.43 1.376 2.733 0 .838-.232 1.536-.698 2.095-.465.545-1.137.898-2.015 1.057v.1a5.121 5.121 0 0 1 1.616.519c.492.252.878.612 1.157 1.077.279.466.419 1.07.419 1.816 0 1.29-.445 2.287-1.337 2.992-.877.705-2.081 1.058-3.611 1.058h-5.007V65.555h4.07zm.359 6.065c1.224 0 2.061-.193 2.514-.579.452-.399.678-.984.678-1.755 0-.785-.279-1.344-.838-1.676-.545-.346-1.423-.519-2.633-.519h-2.355v4.529h2.634zm-2.634 1.496v5.167h2.873c1.264 0 2.142-.246 2.634-.738s.738-1.137.738-1.935c0-.745-.259-1.343-.778-1.796-.506-.465-1.417-.698-2.733-.698h-2.734z" fill="#D4AF37"/>
    <defs>
        <radialGradient id="c" cx="0" cy="0" r="1" gradientUnits="userSpaceOnUse" gradientTransform="matrix(95.9346 0 0 84.1792 31.276 6.316)">
            <stop stop-color="#BF2026"/>
            <stop offset=".505" stop-color="#BE2126"/>
            <stop offset="1" stop-color="#C62127"/>
        </radialGradient>
        <radialGradient id="d" cx="0" cy="0" r="1" gradientUnits="userSpaceOnUse" gradientTransform="matrix(93.9092 0 0 47.295 31.028 5.962)">
            <stop stop-color="#C12127"/>
            <stop offset=".505" stop-color="#BE2129"/>
            <stop offset="1" stop-color="#C82127"/>
        </radialGradient>
        <linearGradient id="a" x1="183.586" y1="0" x2="183.586" y2="35.688" gradientUnits="userSpaceOnUse">
            <stop stop-color="#CC4D52"/>
            <stop offset=".708" stop-color="#BF2127"/>
        </linearGradient>
        <linearGradient id="b" x1="206.459" y1="0" x2="206.459" y2="35.688" gradientUnits="userSpaceOnUse">
            <stop stop-color="#CC4D52"/>
            <stop offset=".771" stop-color="#BF2127"/>
        </linearGradient>
    </defs>
</svg>
