<svg width="129" height="32" viewBox="0 0 129 32" fill="none" xmlns="http://www.w3.org/2000/svg">
    <path d="M111.347 10.184c2.572-.382 3.135-1.713 3.135-3.991v-2.4c0-2.524-2.024-3.793-6.087-3.793s-6.086 1.27-6.086 3.792v2.83c0 1.987.441 3.027 2.784 3.424-2.343.52-2.784 1.973-2.784 4.098v3.104c0 2.554 2.023 3.823 6.086 3.823 4.063 0 6.087-1.269 6.087-3.823v-3.073c0-2.34-.563-3.67-3.135-3.991zm-2.982-1.33c-.898 0-1.339-.429-1.339-1.27V3.548c0-.826.441-1.224 1.339-1.224.913 0 1.369.413 1.369 1.224v4.036c0 .841-.456 1.27-1.369 1.27zm0 9.77c-.898 0-1.339-.427-1.339-1.268v-4.573c0-.871.441-1.3 1.339-1.3.913 0 1.369.429 1.369 1.3v4.572c0 .841-.456 1.27-1.369 1.27z" fill="url(#alc9mxlyta)"/>
    <path d="M124.853 10.184c2.572-.382 3.135-1.713 3.135-3.991v-2.4c0-2.524-2.024-3.793-6.087-3.793s-6.087 1.27-6.087 3.792v2.83c0 1.987.442 3.027 2.785 3.424-2.343.52-2.785 1.973-2.785 4.098v3.104c0 2.554 2.024 3.823 6.087 3.823s6.087-1.269 6.087-3.823v-3.073c0-2.34-.563-3.67-3.135-3.991zm-2.982-1.33c-.898 0-1.339-.429-1.339-1.27V3.548c0-.826.441-1.224 1.339-1.224.913 0 1.369.413 1.369 1.224v4.036c0 .841-.456 1.27-1.369 1.27zm0 9.77c-.898 0-1.339-.427-1.339-1.268v-4.573c0-.871.441-1.3 1.339-1.3.913 0 1.369.429 1.369 1.3v4.572c0 .841-.456 1.27-1.369 1.27z" fill="url(#pdjbiko2sb)"/>
    <path d="M106.066 23.876a6.404 6.404 0 1 0-11.777-5.033 6.404 6.404 0 0 0 11.777 5.033z" fill="#fff"/>
    <path d="M103.299 26.568c2.825-1.672 3.814-5.298 2.331-8.264.541 3.46-5.462 8.923-11.23 5.486.07.164.165.306.259.47 1.813 3.014 5.674 4.05 8.64 2.308z" fill="#C2C2C2"/>
    <path d="M98.944 20.988c.235-.872 1.036-2.096 1.412-2.402.424-.047 2.567.871 2.661.989.07.118.094 1.06-.33 2.566-1.036.4-2.401.612-2.401.612s-.8-.8-1.342-1.765zM99.627 17.127l-2.072.094s-.282-.66-.306-1.012c1.154-.918 2.896-.966 2.896-.966s.8.424.847.613c-.282.353-1.365 1.271-1.365 1.271zM94.377 20c.306-.236 1.742-.895 1.86-.848.447.541.777 1.836.777 1.836s-.212 1.224-.966 1.954c-.4.023-1.765-.447-1.765-.447s-.165-1.507.094-2.496zM104.359 18.704s-.447-1.907-.565-2.33l.236-.165c1.648.941 2.401 3.46 2.401 3.46l-.424.495-1.648-1.46zM103.017 25.837l.824-1.907 2.143-.612.141.589s-.424 1.648-2.566 2.543a31.658 31.658 0 0 0-.542-.613zM96.754 26.285l.589-1.601 2.095-.094 1.295 1.671s-1.577 1.177-1.742 1.177c-.165.024-2.237-1.153-2.237-1.153z" fill="#000"/>
    <path d="m94.4 20.235-.494-.942.66.706-.165.236zM94.542 22.282l-.683.8.424-.87.259.07zM97.602 16.491l-.989-.377.966.095.023.282zM100.239 15.479l.023-.612-.235.447.212.165zM97.037 26.402l-1.036-.188.966-.07.07.258zM99.062 27.18l.282.588-.424-.353.142-.236zM95.954 19.387s.706-.871.918-1.13c-.494.753-.588 1.295-.588 1.295l-.33-.165zM97.862 16.962l-.919 1.13c.495-.754.589-1.295.589-1.295l.33.165zM102.758 21.906c-.024.282.376.989.541 1.295-.494-.73-.965-1.06-.965-1.06s.118-.282.424-.235zM99.627 16.562c-.047.282.282 1.036.424 1.342-.424-.777-.871-1.154-.871-1.154s.164-.282.447-.188z" fill="#000"/>
    <path d="M103.77 24.26c.024-.282-.424-.965-.588-1.271.541.706 1.012 1.012 1.012 1.012s-.141.283-.424.26zM106.219 19.834c-.165.236-.095 1.271-.095 1.625a6.425 6.425 0 0 0-.4-1.625s.259-.188.495 0zM104.383 25.65c-.165.235-1.06 1.153-1.06 1.153l.565-1.154s.283-.188.495 0zM105.56 23.46c.211-.189.423-.966.541-1.295-.165.87-.071 1.436-.071 1.436s-.306.118-.47-.141zM100.592 15.479c.189.212 1.177.494 1.531.565-.895-.118-1.625-.094-1.625-.094s-.141-.283.094-.471zM103.912 16.868c-.118-.26-.918-.565-1.201-.753.824.353 1.46.306 1.46.306s0 .353-.259.447zM100.475 22.66c-.259.14-.612.87-.777 1.177.329-.825.329-1.39.329-1.39s.33-.07.448.212z" fill="#000"/>
    <path d="M99.086 24.802c.235-.142.565-.895.73-1.201-.283.848-.26 1.413-.26 1.413s-.352.047-.47-.212zM99.226 21.341c-.211-.188-1.035-.236-1.389-.283.895 0 1.413-.211 1.413-.211s.165.282-.024.494z" fill="#000"/>
    <path d="M96.707 20.894c.236.164 1.06.188 1.39.211-.895.047-1.413.283-1.413.283s-.165-.283.023-.494zM103.252 26.073c-.259-.118-1.012-.07-1.365-.047.871-.212 1.295-.447 1.295-.447s.211.235.07.494zM100.474 25.955c.236.142 1.06.094 1.413.094-.895.142-1.366.4-1.366.4s-.211-.258-.047-.494zM104.877 18.68c-.282-.023-.988.377-1.294.542.729-.494 1.059-.965 1.059-.965s.282.141.235.424z" fill="#000"/>
    <path d="M102.523 19.67c.283.023.965-.424 1.271-.59-.706.542-1.012 1.013-1.012 1.013s-.306-.118-.259-.424zM96.143 22.683c0 .282.447.965.612 1.271-.542-.706-1.154-1.153-1.154-1.153s.259-.165.542-.118z" fill="#000"/>
    <path d="M97.296 24.966c0-.282-.494-.941-.683-1.224.589.683 1.083.942 1.083.942s-.094.306-.4.282zM100.192 19.034c.094-.283-.189-1.06-.26-1.39.354.825.73 1.225.73 1.225s-.188.282-.47.165z" fill="#000"/>
    <path d="M102.334 22.424c.518.142 1.106 1.319 1.106 1.319l-.282.117c-.024 0-.188-.776-.824-1.436zM99.65 22.636c.283.447-.4 1.79-.4 1.79l-.306-.095c0-.024.706-.753.706-1.695z" fill="#C2C2C2"/>
    <path d="M97.555 24.308c.236.4 1.672.117 1.672.117l.047-.306s-.942.471-1.719.189zM99.227 19.01c.283.448-.4 1.79-.4 1.79l-.306-.095c0-.023.706-.776.706-1.695z" fill="#C2C2C2"/>
    <path d="M97.131 20.682c.236.4 1.672.118 1.672.118l.047-.306s-.942.447-1.719.188zM103.512 16.892c.424.259.612 1.718.612 1.718l-.283.047s.142-.965-.329-1.765z" fill="#C2C2C2"/>
    <path d="M102.805 19.293c.377.235 1.295-.66 1.295-.66l-.118-.305s-.471.847-1.177.965zM95.93 23.53c.495.071 1.2 1.366 1.2 1.366l-.235.141c-.023 0-.235-.941-.965-1.506z" fill="#C2C2C2"/>
    <path d="M96.166 26.026c.447.07.965-1.106.965-1.106l-.212-.236c-.023.024-.14.965-.753 1.342zM104.335 19.034c.518.047 1.484 1.318 1.484 1.318l-.259.188s-.471-.965-1.225-1.506zM95.978 18.963s.447-.73 1.2-2.283c.142.753-1.2 2.283-1.2 2.283zM101.11 15.385s.8.282 2.495.682c-.706.306-2.495-.682-2.495-.682z" fill="#C2C2C2"/>
    <path d="M0 .946C0 .714.206.508.464.508H34.97c.258 0 .438.206.438.438v30.616a.434.434 0 0 1-.438.438H.464C.206 32 0 31.794 0 31.562V.946z" fill="#D4B372"/>
    <path d="M1.752 2.699c0-.258.206-.438.464-.438h31.002c.258 0 .439.206.439.438v27.11a.434.434 0 0 1-.438.439H2.19c-.257 0-.463-.207-.463-.439V2.7h.025z" fill="url(#v4ki7155hc)"/>
    <path d="M26.26 22.826V8.96s.877-.516 1.779-1.701c0 0-1.134.438-1.598 0-.49-.438-1.443-1.83-1.443-1.83s-3.299 2.062-3.66 2.268V5.172h-.721v2.81s-.67.283-1.134-.104c-.49-.412-.928-.36-1.7-2.55 0 0-4.537 2.215-6.572 3.555-2.036 1.366-1.959 1.521-2.114 3.712 0 1.391.103 2.319-.438 2.345-.721-.026-2.01-.207-2.396 1.804-.207 1.005.257 1.752.747 1.83 0 0 .155-1.16 1.52-1.16.439 0 .593.103.619.953.026.567 0 1.804 0 2.448 0 .438-.077.902-.258 1.315-.154.309-.335.644-.618.747 0 0 1.572.026 2.783-1.185.412-.439.438-.928.49-2.32.051-1.391 0-9.406 0-9.406s.206-1.134 1.752-1.701v13.607s.232 2.835-1.624 2.99c-1.855-.078-1.778-.464-2.834-.645-1.005-.18-2.577.387-3.222 2.5-.025.077.078.18.155.103.283-.206.799-.464 1.366-.232.85.31 1.778.902 3.067.876 1.288-.025 3.479-.902 3.736-5.231.052-4.2.052-4.459.052-4.459h2.242v6.288s-1.34.902-1.392 1.882c0 .077.078.18.18.154.31-.077.62-.154.954-.18.361-.052 2.217 1.005 2.448 1.417.439.258 1.134-.644 1.47-.902.309-.257 2.628-1.932 3.401-2.319.438 0 .515.206.67 1.108.103.902.98 2.036 2.448 2.268l2.088-3.092c-.052-.155-1.856.025-2.242-1.572zm-9.818-7.835h-2.448V7.775c.438-.025.618-.103.928-.103.36.954 1.52 1.392 1.52 1.392v5.927zm3.891 9.613-1.288-.902V9.554c.49-.774 1.572-.954 1.572-.954v16.004h-.284zm3.35-1.444-2.267 1.418h-.078V17.67h2.346v5.49zm0-8.169h-2.345l.026-6.52c.438-.567 1.134-.618 1.134-.618.155.747 1.211 1.237 1.211 1.237v5.875h-.025v.026z" fill="#fff"/>
    <path opacity=".2" fill-rule="evenodd" clip-rule="evenodd" d="M.464.508C.206.508 0 .714 0 .946V23.11l35.41-9.587V.946a.434.434 0 0 0-.439-.438H.464z" fill="#fff"/>
    <path d="M41.038 30.456A233.213 233.213 0 0 1 51.665 27.3c.465-.997.797-2.192.964-3.52l1.195-9.665h-6.443l-.531 4.35h2.092l-.697 5.613c-.266 2.192-1.296 2.956-2.757 2.956s-2.291-.797-2.026-2.956l2.06-16.44c.265-2.191 1.295-2.988 2.756-2.988 1.461 0 2.291.83 2.026 2.989l-.399 3.255h4.35l.366-2.956C55.22 3.057 53.226.267 48.71.267c-4.517 0-7.207 2.79-7.805 7.672l-1.96 15.841c-.431 3.189.3 5.48 2.093 6.676zM41.569 30.754c.896.432 1.96.698 3.255.698 2.59 0 4.55-.897 5.911-2.59a175.848 175.848 0 0 0-9.166 1.892zM59.769 25.308a5.226 5.226 0 0 1 .033-1.229l2.06-16.472c.265-2.192 1.294-2.99 2.756-2.99 1.46 0 2.291.831 2.026 2.99l-2.06 16.472c0 .067-.033.133-.033.2 1.594-.333 3.188-.631 4.716-.93l1.926-15.41C71.791 3.057 69.666.267 65.15.267c-4.517 0-7.34 2.79-7.937 7.672l-1.96 15.841a9.978 9.978 0 0 0-.033 2.624c1.528-.398 3.055-.764 4.55-1.096zM62.89 26.902c-.332.133-.697.2-1.096.2h-.265c-2.093.298-4.118.597-5.978.93.797 2.224 2.723 3.453 5.712 3.453 3.72 0 6.277-1.893 7.406-5.28-1.993.199-3.919.432-5.779.697zM76.64 22.12l4.284-16.108h.1l.298 15.443c1.594-.199 3.089-.398 4.517-.531L85.241.599H78.5l-6.177 22.185c1.462-.233 2.923-.465 4.318-.664zM71.458 25.872l-1.46 5.215h4.217l1.494-5.613c-1.428.133-2.856.266-4.25.398zM81.356 25.075l.1 6.045h4.649l-.2-6.277c-1.527.033-3.055.133-4.55.232zM94.21 20.193 96.633.6h-4.617l-2.49 19.96c1.76-.166 3.32-.266 4.682-.366zM93.677 24.577c-1.56.033-3.088.067-4.616.133l-.797 6.41h12.189l.531-4.35h-7.572l.265-2.193z" fill="#151D2D"/>
    <path d="M35.307.254H0v31.498h35.307V.254z" fill="#C9AA71"/>
    <path d="M33.275 2.032H2.032v27.941h31.243V2.032z" fill="url(#wmxf4kpfdd)"/>
    <path d="M14.287 15.477v9.88c0 .216-.048.36-.243.36-.196 0-.269-.144-.269-.36v-1.299h-.488c-.463 0-2.293 1.515-2.732 1.827-.805-.457-1.781-.913-2.513-1.154-.415.385-.707.65-.903.841-.195.193-.268.289-.366.289-.146 0-.292-.168-.292-.288 0-.12.292-.457 1.683-1.875.951-.962 1.342-2.164 1.342-3.942 0-2.957-1.293-5.48-2.757-5.48-.488 0-.732.192-.83.697-.024.24-.146.312-.243.312-.22 0-.342-.36-.342-.961 0-1.37.951-2.452 2.147-2.452 1.025 0 1.415.817 2.025.745v-2.019c0-.505-.195-.961-.561-1.274-.317-.264-2.025-1.418-2.66-1.418-.22 0-.317.096-.463.096-.098 0-.098-.024-.098-.096 0-.096.05-.144.22-.313L8.09 5.478c.097-.096.17-.144.268-.144.732 0 3.684 2.356 4.05 2.356.561 0 3.586-2.284 4.367-2.284.22 0 .44.192 2.098 1.514.268.217.83.698 1.318 1.01.439.264.463.312.463.841.268-.048.561-.264 2.293-1.658.488-.409 1.952-1.563 2.05-1.563.146 0 1.341.505 3.122 1.226.513.217.61.265.61.601v14.061c0 .457.05.625.244.794.83.697 1.318.985 1.586.985a.37.37 0 0 0 .268-.096c.147-.192.171-.216.244-.216.098 0 .171.096.171.216 0 .168-1.22 1.682-2.488 2.668-.757-.265-2.074-1.154-2.806-1.923-.244-.264-.293-.337-.293-.793V12.978c0-1.154.366-1.971 1.757-3.774.707-.913.756-1.202.634-1.202-.097 0-1.78 1.202-2.098 1.394-1.488-.841-1.927-1.105-2.708-1.105-.44 0-.732.216-.732.504v16.73c0 .216-.097.384-.268.384-.147 0-.22-.144-.22-.36v-1.25c-1.17.192-2.147 1.562-2.39 1.562-.293 0-2.074-2.115-2.074-2.284v-8.1h-3.27zm-.512-6.946c0-.553-.049-.745-.17-.745-.245 0-1.123.553-1.123.745v7.547c0 3.726-.439 4.11-1.415 5.144-.439.457-.56.553-.878.961.561.794 2.488 1.154 3.586 1.106V8.531zm.512 4.374h3.196V9.902c0-.553-2.049-2.115-2.732-2.115-.293 0-.463.192-.463.553v4.566zm7.661-3.87c0-.047-.024-.095-.098-.095a.604.604 0 0 0-.292.096l-.635.384c-.366.217-.463.337-.463.505v2.716c0 .192.244.313.439.313h1.073l-.024-3.918zm0 6.394h-1.025c-.292 0-.439.217-.439.625v5.577c0 1.105.464 1.61 1.488 1.682V15.43h-.024z" fill="#fff"/>
    <path opacity=".2" fill-rule="evenodd" clip-rule="evenodd" d="M.464.254C.206.254 0 .46 0 .692v22.163l35.41-9.586V.692a.434.434 0 0 0-.439-.438H.464z" fill="#fff"/>
    <defs>
        <radialGradient id="v4ki7155hc" cx="0" cy="0" r="1" gradientUnits="userSpaceOnUse" gradientTransform="matrix(56.6432 0 0 49.7024 18.467 3.73)">
            <stop stop-color="#BF2026"/>
            <stop offset=".505" stop-color="#BE2126"/>
            <stop offset="1" stop-color="#C62127"/>
        </radialGradient>
        <radialGradient id="wmxf4kpfdd" cx="0" cy="0" r="1" gradientUnits="userSpaceOnUse" gradientTransform="matrix(55.4473 0 0 27.9246 18.32 3.52)">
            <stop stop-color="#C12127"/>
            <stop offset=".505" stop-color="#BE2129"/>
            <stop offset="1" stop-color="#C82127"/>
        </radialGradient>
        <linearGradient id="alc9mxlyta" x1="108.395" y1="0" x2="108.395" y2="21.071" gradientUnits="userSpaceOnUse">
            <stop stop-color="#CC4D52"/>
            <stop offset=".708" stop-color="#BF2127"/>
        </linearGradient>
        <linearGradient id="pdjbiko2sb" x1="121.901" y1="0" x2="121.901" y2="21.071" gradientUnits="userSpaceOnUse">
            <stop stop-color="#CC4D52"/>
            <stop offset=".771" stop-color="#BF2127"/>
        </linearGradient>
    </defs>
</svg>
