<svg width="64" height="64" fill="none" xmlns="http://www.w3.org/2000/svg">
    <path fill-rule="evenodd" clip-rule="evenodd" d="M18.739 50.38a24.928 24.928 0 0 1-2.483-2.15A22.656 22.656 0 0 1 9.6 32.154a22.656 22.656 0 0 1 6.656-16.077 22.875 22.875 0 0 1 14.592-6.605V6.4l5.35 3.098 5.35 3.097-5.35 3.098-5.35 3.072v-3.021a16.462 16.462 0 0 0-10.19 4.762c-2.994 2.995-4.838 7.09-4.838 11.648a16.34 16.34 0 0 0 4.839 11.648 17.032 17.032 0 0 0 4.019 2.97l-5.94 3.609zM46.054 14.003c.87.665 1.715 1.382 2.483 2.15a22.656 22.656 0 0 1 6.656 16.077 22.656 22.656 0 0 1-6.656 16.077 22.62 22.62 0 0 1-14.592 6.604v3.072l-5.35-3.097-5.35-3.098 5.35-3.097 5.35-3.098v3.02a16.331 16.331 0 0 0 10.163-4.76c2.995-2.996 4.839-7.092 4.839-11.649a16.34 16.34 0 0 0-4.839-11.648 17.032 17.032 0 0 0-4.02-2.97l5.966-3.583z" fill="#151D2D"/>
    <path d="M25.958 36.02h-5.58v-1.178l1.996-2.022c.589-.614.973-1.024 1.178-1.254.179-.256.307-.461.384-.666a1.76 1.76 0 0 0 .128-.614c0-.333-.077-.564-.256-.717-.18-.18-.436-.256-.717-.256-.307 0-.615.077-.896.205a4.809 4.809 0 0 0-.922.614l-.921-1.075c.384-.333.716-.563.972-.717a2.39 2.39 0 0 1 .845-.307 4.363 4.363 0 0 1 1.05-.128c.512 0 .947.102 1.331.281.384.18.691.436.896.768.18.308.282.692.282 1.127 0 .358-.077.717-.205 1.05-.103.307-.307.64-.589.972-.282.333-.742.82-1.434 1.46l-1.024.972v.077h3.482v1.408zM32.538 34.356h-.948v1.664h-1.664v-1.664h-3.404V33.18l3.507-5.171h1.561v5.017h.973v1.331h-.026zm-2.612-1.305v-1.357c0-.23 0-.563.026-.973.025-.435.025-.691.051-.768h-.051a4.181 4.181 0 0 1-.487.87l-1.459 2.228h1.92zM37.299 28.008l-2.97 7.987h-1.536l2.97-7.987h1.536zM38.605 36.02l2.996-6.58h-3.943v-1.407h5.735v1.05l-3.021 6.937h-1.767z" fill="#D4AF37"/>
</svg>
