<svg width="64" height="64" fill="none" xmlns="http://www.w3.org/2000/svg">
    <path d="M35.494 54.835a5.39 5.39 0 0 1-.64.051 4.611 4.611 0 0 1-4.53-3.814l-.36-2.074L28.097 48a4.587 4.587 0 0 1-1.971-6.093l.921-1.894-.921-1.895a4.595 4.595 0 0 1 1.971-6.092l1.869-.999.358-2.073c.435-2.458 2.688-4.122 5.171-3.764l2.1.308 1.51-1.46a4.574 4.574 0 0 1 6.4 0l1.51 1.46 1.408-.205-2.739-2.483h.051L31.014 9.6 8 30.26H21.005v25.215h.051v.026h10.957c-.026 0-.026-.026-.051-.026h6.579l-.973-.921-2.074.281z" fill="#151D2D"/>
    <path fill-rule="evenodd" clip-rule="evenodd" d="M55.847 39.629a.868.868 0 0 0 0 .793l1.152 2.355a2.654 2.654 0 0 1-1.152 3.533l-2.304 1.229a.858.858 0 0 0-.46.64l-.462 2.56c-.256 1.434-1.561 2.38-3.02 2.176l-2.586-.358a.867.867 0 0 0-.768.256l-1.869 1.817a2.657 2.657 0 0 1-1.869.768 2.702 2.702 0 0 1-1.868-.768l-1.87-1.817a.945.945 0 0 0-.767-.256l-2.586.358c-.128.026-.256.026-.384.026a2.685 2.685 0 0 1-2.637-2.228l-.46-2.56a.925.925 0 0 0-.461-.64l-2.304-1.228c-1.28-.692-1.792-2.228-1.152-3.533l1.152-2.355a.868.868 0 0 0 0-.794l-1.152-2.355a2.699 2.699 0 0 1 1.203-3.507l2.304-1.23a.858.858 0 0 0 .46-.64l.462-2.56c.256-1.433 1.561-2.38 3.02-2.175l2.586.358a.868.868 0 0 0 .768-.256l1.869-1.817c1.05-.999 2.688-.999 3.712 0l1.868 1.817a.945.945 0 0 0 .769.256l2.585-.358a2.688 2.688 0 0 1 3.02 2.176l.462 2.56c.05.281.23.512.46.64l2.305 1.229c1.28.69 1.791 2.227 1.152 3.532l-1.178 2.356zm-13.62-4.327a3.256 3.256 0 0 0-3.25-3.251 3.256 3.256 0 0 0-3.252 3.251 3.256 3.256 0 0 0 3.252 3.251 3.24 3.24 0 0 0 3.25-3.25zM37.314 46.49a.873.873 0 0 1-.615.256c-.23 0-.46-.076-.614-.256a.866.866 0 0 1 0-1.254l11.699-11.7a.866.866 0 0 1 1.254 0 .866.866 0 0 1 0 1.255l-11.724 11.7zm5.53-1.74a3.256 3.256 0 0 0 3.25 3.25 3.256 3.256 0 0 0 3.251-3.25 3.256 3.256 0 0 0-3.25-3.252 3.24 3.24 0 0 0-3.252 3.252z" fill="#D4AF37"/>
    <path d="M46.067 43.264a1.486 1.486 0 0 0 0 2.97 1.486 1.486 0 0 0 0-2.97zM39.002 33.817a1.486 1.486 0 0 0 0 2.97c.82 0 1.485-.666 1.485-1.485-.025-.82-.691-1.485-1.485-1.485z" fill="#D4AF37"/>
</svg>
