<svg width="64" height="64" fill="none" xmlns="http://www.w3.org/2000/svg">
    <path d="M31.718 49.408c0-1.075.589-2.048 1.562-2.586l1.612-.921c-1.74-.026-3.174-1.357-3.174-3.021v-3.328c0-1.075.589-2.048 1.562-2.586l4.812-2.713-.153-.333c-.103-.538.025-.998.384-1.331 2.893-2.611 4.352-6.17 4.326-10.624 0-3.61-.896-6.554-2.662-8.858C38.246 10.752 35.788 9.6 32.64 9.6c-3.15 0-5.607 1.152-7.373 3.482-1.767 2.304-2.663 5.273-2.663 8.857 0 4.48 1.434 8.013 4.352 10.624.359.359.512.794.384 1.331l-.742 1.562c-.23.512-.589.922-1.075 1.229-.461.307-1.46.717-2.97 1.254-.077.026-1.433.461-4.147 1.331-2.688.87-4.122 1.357-4.3 1.434-1.844.768-3.022 1.562-3.61 2.38C9.906 44.519 9.6 48 9.6 53.582h22.323c-.077-.282-.18-.563-.18-.845v-3.328h-.025zM39.68 53.58h10.112l-5.07-2.868-5.042 2.867zM54.553 45.9l.845.487c-.026-.23-.052-.435-.077-.64-.23.05-.487.153-.768.153z" fill="#151D2D"/>
    <path d="M44.263 32.894c.256 0 .512.077.716.18l9.78 5.529c.358.205.588.537.588.921v3.354c0 .614-.589 1.1-1.305 1.1-.256 0-.512-.076-.717-.178l-9.063-5.12L35.2 43.8c-.205.128-.46.179-.717.179-.716 0-1.305-.487-1.305-1.101V39.55c0-.384.23-.717.589-.922l9.779-5.53c.179-.127.435-.204.717-.204z" fill="#D4AF37"/>
    <path d="M44.263 42.752c.256 0 .512.076.716.179l9.78 5.53c.358.204.588.537.588.921v3.328c0 .614-.589 1.1-1.305 1.1-.256 0-.512-.076-.717-.178l-9.063-5.12-9.062 5.12c-.205.128-.46.179-.717.179-.716 0-1.305-.486-1.305-1.1v-3.329c0-.384.23-.717.589-.921l9.779-5.53c.179-.102.435-.18.717-.18z" fill="#D4AF37"/>
</svg>
