<svg width="64" height="64" fill="none" xmlns="http://www.w3.org/2000/svg">
    <path fill-rule="evenodd" clip-rule="evenodd" d="M18.739 50.38a24.928 24.928 0 0 1-2.483-2.15A22.656 22.656 0 0 1 9.6 32.154a22.656 22.656 0 0 1 6.656-16.077 22.875 22.875 0 0 1 14.592-6.605V6.4l5.35 3.098 5.35 3.097-5.35 3.098-5.35 3.072v-3.021a16.462 16.462 0 0 0-10.19 4.762c-2.994 2.995-4.838 7.09-4.838 11.648a16.34 16.34 0 0 0 4.839 11.648 17.032 17.032 0 0 0 4.019 2.97l-5.94 3.609zM46.054 14.003c.87.665 1.715 1.382 2.483 2.15a22.656 22.656 0 0 1 6.656 16.077 22.656 22.656 0 0 1-6.656 16.077 22.62 22.62 0 0 1-14.592 6.604v3.072l-5.35-3.097-5.35-3.098 5.35-3.097 5.35-3.098v3.02a16.331 16.331 0 0 0 10.163-4.76c2.995-2.996 4.839-7.092 4.839-11.649a16.34 16.34 0 0 0-4.839-11.648 17.032 17.032 0 0 0-4.02-2.97l5.966-3.583z" fill="#151D2D"/>
    <path d="M39.602 32.205c-.435-.742-1.152-1.356-2.125-1.894-.972-.486-2.61-1.024-4.89-1.51-.946-.205-1.535-.41-1.766-.64-.23-.205-.384-.436-.384-.743 0-.384.154-.691.487-.921.281-.256.768-.384 1.357-.384.716 0 1.305.204 1.74.537.436.333.666.922.82 1.664l4.89-.281c-.206-1.741-.871-3.021-2.049-3.84-.793-.615-1.971-.999-3.379-1.152V20.66h-3.968v2.483a7.417 7.417 0 0 0-1.74.486 5.167 5.167 0 0 0-2.28 1.844c-.486.768-.767 1.612-.767 2.483 0 1.305.486 2.432 1.459 3.251.973.87 2.611 1.562 4.89 2.048 1.408.282 2.278.64 2.662.973.384.333.589.742.589 1.177 0 .487-.205.87-.589 1.23-.384.332-.973.537-1.74.537-1.025 0-1.742-.333-2.33-1.024-.333-.435-.538-1.024-.666-1.843l-4.864.332c.154 1.716.768 3.124 1.894 4.224.768.768 1.946 1.255 3.533 1.51V42.6h3.968v-2.15c.973-.103 1.843-.282 2.509-.64 1.075-.487 1.894-1.178 2.509-2.1.614-.896.947-1.868.947-2.995-.051-.921-.282-1.74-.717-2.509z" fill="#D4AF37"/>
</svg>
