<svg width="16" height="16" viewBox="0 0 16 16" fill="none" xmlns="http://www.w3.org/2000/svg">
    <path d="M8 1.678c3.469 0 6.322 2.853 6.322 6.322S11.469 14.322 8 14.322 1.678 11.469 1.678 8 4.531 1.678 8 1.678zM8 0C3.58 0 0 3.58 0 8s3.58 8 8 8 8-3.58 8-8-3.58-8-8-8z" fill="#151D2D"/>
    <path d="M8 6.49c-.727 0-1.343.615-1.343 1.342v3.58c0 .728.616 1.343 1.343 1.343s1.343-.615 1.343-1.342v-3.58c0-.728-.616-1.344-1.343-1.344zM8 3.245c-.783 0-1.398.615-1.398 1.398 0 .784.615 1.4 1.398 1.4.783 0 1.399-.616 1.399-1.4 0-.783-.616-1.398-1.399-1.398z" fill="#151D2D"/>
</svg>
