<svg width="16" height="17" viewBox="0 0 16 17" fill="none" xmlns="http://www.w3.org/2000/svg">
    <path fill-rule="evenodd" clip-rule="evenodd" d="M4.684 13.034A5.664 5.664 0 0 1 2.4 8.477c0-1.568.634-2.989 1.664-4.02a5.719 5.719 0 0 1 3.648-1.65v-.768l1.338.774 1.338.774-1.338.775-1.338.768v-.755a4.115 4.115 0 0 0-2.547 1.19 4.096 4.096 0 0 0-1.21 2.912c0 1.14.461 2.17 1.21 2.912.295.294.634.544 1.005.742l-1.485.903zM11.513 3.94a5.664 5.664 0 0 1 2.285 4.557 5.664 5.664 0 0 1-1.664 4.018 5.655 5.655 0 0 1-3.648 1.651v.768l-1.338-.774-1.337-.774 1.337-.775 1.338-.774v.755a4.083 4.083 0 0 0 2.54-1.19 4.096 4.096 0 0 0 1.21-2.912c0-1.14-.46-2.17-1.21-2.912a4.258 4.258 0 0 0-1.004-.743l1.49-.896z" fill="#F7D00E"/>
    <path d="M9.9 8.49c-.109-.186-.288-.34-.531-.474-.243-.121-.653-.256-1.223-.377-.236-.051-.384-.103-.441-.16-.058-.051-.096-.11-.096-.186 0-.096.038-.173.121-.23.07-.064.192-.096.34-.096.179 0 .326.05.435.134.109.083.166.23.205.416l1.222-.07c-.051-.435-.218-.755-.512-.96-.198-.154-.493-.25-.845-.288v-.595h-.992v.62c-.166.026-.313.07-.435.122a1.292 1.292 0 0 0-.57.46 1.16 1.16 0 0 0-.192.622c0 .326.122.608.365.812.243.218.653.39 1.223.512.352.07.57.16.665.244a.389.389 0 0 1 .147.294.404.404 0 0 1-.147.307c-.096.083-.243.135-.435.135-.256 0-.435-.084-.582-.256-.084-.11-.135-.256-.167-.461l-1.216.083c.039.429.192.78.474 1.056.192.192.486.313.883.377v.557h.992v-.537c.243-.026.46-.07.627-.16.27-.122.474-.295.627-.525.154-.224.237-.467.237-.749A1.398 1.398 0 0 0 9.9 8.49z" fill="#F7D00E"/>
</svg>
