<svg width="16" height="16" viewBox="0 0 16 16" fill="none" xmlns="http://www.w3.org/2000/svg">
    <path d="M8.563.466v5.143a.14.14 0 0 0 .14.141h5.144a.07.07 0 0 0 .069-.084.07.07 0 0 0-.02-.036L8.683.416a.07.07 0 0 0-.12.05z" fill="#151D2D"/>
    <path d="M7.719 6.875a.281.281 0 0 1-.282-.281V.125H2.234a.422.422 0 0 0-.421.422v14.906a.422.422 0 0 0 .421.422h11.532a.421.421 0 0 0 .421-.422V6.875H7.72zm3.656 5.625h-6.75v-1.125h6.75V12.5zm0-2.813h-6.75V8.563h6.75v1.124z" fill="#151D2D"/>
</svg>
