<svg width="32" height="32" viewBox="0 0 32 32" fill="none" xmlns="http://www.w3.org/2000/svg">
    <path d="M3.897 14.049h2.701a1.063 1.063 0 0 1 1.058 1.04v6.754a1.057 1.057 0 0 1-1.058 1.058H3.897a1.058 1.058 0 0 1-1.063-1.058V15.09a1.058 1.058 0 0 1 1.063-1.04zM26.93 14.049h-2.684c-.585 0-1.058.474-1.058 1.058v6.718c0 .585.473 1.058 1.058 1.058h2.683c.585 0 1.058-.473 1.058-1.058v-6.718c0-.584-.473-1.058-1.058-1.058zM26.777 12.67H24.41v-1.55a8.974 8.974 0 1 0-17.948 0v1.55H4.088v-1.55a11.347 11.347 0 0 1 22.69 0v1.55zM28.862 15.462v6.002a3.242 3.242 0 0 0 0-6.002zM2.016 15.462v6.002a3.242 3.242 0 0 1 0-6.002zM18.5 30.926v-1.202a6.093 6.093 0 0 0 6.083-6.088h1.212a7.295 7.295 0 0 1-7.295 7.29z" fill="#D4D6DB"/>
    <path d="M18.136 31.999H16.24a1.675 1.675 0 0 1-1.67-1.675 1.675 1.675 0 0 1 1.67-1.67h1.896a1.675 1.675 0 0 1 1.675 1.67 1.68 1.68 0 0 1-1.675 1.675z" fill="#D4D6DB"/>
</svg>
