<svg width="16" height="17" fill="none" xmlns="http://www.w3.org/2000/svg">
    <path d="M7.938 15.246A6.934 6.934 0 0 1 .992 8.301c0-3.845 3.101-6.946 6.946-6.946 3.845 0 6.946 3.1 6.946 6.946 0 3.845-3.101 6.945-6.946 6.945zm0-12.527c-3.1 0-5.457 2.48-5.457 5.582 0 3.1 2.48 5.457 5.457 5.457s5.457-2.48 5.457-5.457-2.48-5.582-5.457-5.582z" fill="#F7D00E"/>
    <path d="M11.784 9.975H7.07V5.51c0-.372.372-.744.744-.744.373 0 .745.372.745.744v2.977h3.225c.372 0 .744.372.744.744s-.372.744-.745.744z" fill="#F7D00E"/>
</svg>
